<mxfile host="app.diagrams.net" modified="2024-07-20T04:41:00.058Z" agent="Mozilla/5.0 (Windows NT 10.0; Win64; x64) AppleWebKit/537.36 (KHTML, like Gecko) Chrome/126.0.0.0 Safari/537.36" etag="nmKtkdCFuMgthJAVaP0P" version="24.7.1" type="github">
  <diagram name="Page-1" id="DIM3JyLmQWokmDoHXN_I">
    <mxGraphModel dx="715" dy="484" grid="1" gridSize="10" guides="1" tooltips="1" connect="1" arrows="1" fold="1" page="1" pageScale="1" pageWidth="850" pageHeight="1100" math="0" shadow="0">
      <root>
        <mxCell id="0" />
        <mxCell id="1" parent="0" />
        <mxCell id="CmqytRWGhgBZeWYKe2WZ-18" value="Role" style="swimlane;whiteSpace=wrap;html=1;" vertex="1" parent="1">
          <mxGeometry x="510" y="10" width="350" height="370" as="geometry" />
        </mxCell>
        <mxCell id="CmqytRWGhgBZeWYKe2WZ-7" value="role" style="ellipse;whiteSpace=wrap;html=1;" vertex="1" parent="CmqytRWGhgBZeWYKe2WZ-18">
          <mxGeometry x="115" y="40" width="120" height="80" as="geometry" />
        </mxCell>
        <mxCell id="CmqytRWGhgBZeWYKe2WZ-8" value="admin" style="rounded=0;whiteSpace=wrap;html=1;" vertex="1" parent="CmqytRWGhgBZeWYKe2WZ-18">
          <mxGeometry x="25" y="160" width="120" height="60" as="geometry" />
        </mxCell>
        <mxCell id="CmqytRWGhgBZeWYKe2WZ-9" value="user" style="rounded=0;whiteSpace=wrap;html=1;" vertex="1" parent="CmqytRWGhgBZeWYKe2WZ-18">
          <mxGeometry x="205" y="160" width="120" height="60" as="geometry" />
        </mxCell>
        <mxCell id="CmqytRWGhgBZeWYKe2WZ-10" value="" style="endArrow=none;html=1;rounded=0;exitX=0.5;exitY=0;exitDx=0;exitDy=0;entryX=0.5;entryY=1;entryDx=0;entryDy=0;" edge="1" parent="CmqytRWGhgBZeWYKe2WZ-18" source="CmqytRWGhgBZeWYKe2WZ-8" target="CmqytRWGhgBZeWYKe2WZ-7">
          <mxGeometry width="50" height="50" relative="1" as="geometry">
            <mxPoint x="125" y="170" as="sourcePoint" />
            <mxPoint x="175" y="120" as="targetPoint" />
          </mxGeometry>
        </mxCell>
        <mxCell id="CmqytRWGhgBZeWYKe2WZ-11" value="" style="endArrow=none;html=1;rounded=0;exitX=0.5;exitY=0;exitDx=0;exitDy=0;" edge="1" parent="CmqytRWGhgBZeWYKe2WZ-18" source="CmqytRWGhgBZeWYKe2WZ-9">
          <mxGeometry width="50" height="50" relative="1" as="geometry">
            <mxPoint x="125" y="170" as="sourcePoint" />
            <mxPoint x="175" y="120" as="targetPoint" />
          </mxGeometry>
        </mxCell>
        <mxCell id="CmqytRWGhgBZeWYKe2WZ-13" value="CRUD, handle requests, deactivate accs, analytics, etc." style="rounded=1;whiteSpace=wrap;html=1;" vertex="1" parent="CmqytRWGhgBZeWYKe2WZ-18">
          <mxGeometry x="25" y="290" width="120" height="60" as="geometry" />
        </mxCell>
        <mxCell id="CmqytRWGhgBZeWYKe2WZ-15" value="" style="endArrow=classic;html=1;rounded=0;exitX=0.5;exitY=1;exitDx=0;exitDy=0;entryX=0.5;entryY=0;entryDx=0;entryDy=0;" edge="1" parent="CmqytRWGhgBZeWYKe2WZ-18" source="CmqytRWGhgBZeWYKe2WZ-8" target="CmqytRWGhgBZeWYKe2WZ-13">
          <mxGeometry width="50" height="50" relative="1" as="geometry">
            <mxPoint x="-35" y="310" as="sourcePoint" />
            <mxPoint x="15" y="260" as="targetPoint" />
          </mxGeometry>
        </mxCell>
        <mxCell id="CmqytRWGhgBZeWYKe2WZ-16" value="CRUD" style="rounded=1;whiteSpace=wrap;html=1;" vertex="1" parent="CmqytRWGhgBZeWYKe2WZ-18">
          <mxGeometry x="205" y="290" width="120" height="60" as="geometry" />
        </mxCell>
        <mxCell id="CmqytRWGhgBZeWYKe2WZ-17" value="" style="endArrow=classic;html=1;rounded=0;exitX=0.5;exitY=1;exitDx=0;exitDy=0;entryX=0.5;entryY=0;entryDx=0;entryDy=0;" edge="1" parent="CmqytRWGhgBZeWYKe2WZ-18">
          <mxGeometry width="50" height="50" relative="1" as="geometry">
            <mxPoint x="264.5" y="220" as="sourcePoint" />
            <mxPoint x="264.5" y="290" as="targetPoint" />
          </mxGeometry>
        </mxCell>
        <mxCell id="CmqytRWGhgBZeWYKe2WZ-20" value="general" style="swimlane;whiteSpace=wrap;html=1;" vertex="1" parent="1">
          <mxGeometry x="10" y="10" width="370" height="210" as="geometry" />
        </mxCell>
        <mxCell id="CmqytRWGhgBZeWYKe2WZ-2" value="account" style="rounded=0;whiteSpace=wrap;html=1;" vertex="1" parent="CmqytRWGhgBZeWYKe2WZ-20">
          <mxGeometry x="120" y="40" width="120" height="60" as="geometry" />
        </mxCell>
        <mxCell id="CmqytRWGhgBZeWYKe2WZ-3" value="role" style="rounded=0;whiteSpace=wrap;html=1;" vertex="1" parent="CmqytRWGhgBZeWYKe2WZ-20">
          <mxGeometry x="20" y="130" width="120" height="60" as="geometry" />
        </mxCell>
        <mxCell id="CmqytRWGhgBZeWYKe2WZ-4" value="userInfo" style="rounded=0;whiteSpace=wrap;html=1;" vertex="1" parent="CmqytRWGhgBZeWYKe2WZ-20">
          <mxGeometry x="230" y="130" width="120" height="60" as="geometry" />
        </mxCell>
        <mxCell id="CmqytRWGhgBZeWYKe2WZ-5" value="" style="endArrow=none;html=1;rounded=0;exitX=0.5;exitY=0;exitDx=0;exitDy=0;" edge="1" parent="CmqytRWGhgBZeWYKe2WZ-20" source="CmqytRWGhgBZeWYKe2WZ-3">
          <mxGeometry width="50" height="50" relative="1" as="geometry">
            <mxPoint x="130" y="150" as="sourcePoint" />
            <mxPoint x="180" y="100" as="targetPoint" />
          </mxGeometry>
        </mxCell>
        <mxCell id="CmqytRWGhgBZeWYKe2WZ-6" value="" style="endArrow=none;html=1;rounded=0;exitX=0.5;exitY=0;exitDx=0;exitDy=0;" edge="1" parent="CmqytRWGhgBZeWYKe2WZ-20" source="CmqytRWGhgBZeWYKe2WZ-4">
          <mxGeometry width="50" height="50" relative="1" as="geometry">
            <mxPoint x="130" y="150" as="sourcePoint" />
            <mxPoint x="180" y="100" as="targetPoint" />
          </mxGeometry>
        </mxCell>
        <mxCell id="CmqytRWGhgBZeWYKe2WZ-27" value="user_list &amp;gt; accounts" style="swimlane;whiteSpace=wrap;html=1;" vertex="1" parent="1">
          <mxGeometry x="10" y="250" width="460" height="110" as="geometry">
            <mxRectangle x="10" y="250" width="150" height="30" as="alternateBounds" />
          </mxGeometry>
        </mxCell>
        <mxCell id="CmqytRWGhgBZeWYKe2WZ-21" value="admin clicks user name in user_list" style="rounded=0;whiteSpace=wrap;html=1;" vertex="1" parent="CmqytRWGhgBZeWYKe2WZ-27">
          <mxGeometry x="10" y="40" width="120" height="60" as="geometry" />
        </mxCell>
        <mxCell id="CmqytRWGhgBZeWYKe2WZ-22" value="" style="endArrow=classic;html=1;rounded=0;" edge="1" parent="CmqytRWGhgBZeWYKe2WZ-27">
          <mxGeometry width="50" height="50" relative="1" as="geometry">
            <mxPoint x="130" y="69.5" as="sourcePoint" />
            <mxPoint x="170" y="70" as="targetPoint" />
          </mxGeometry>
        </mxCell>
        <mxCell id="CmqytRWGhgBZeWYKe2WZ-23" value="user profile card with see more button" style="rounded=0;whiteSpace=wrap;html=1;" vertex="1" parent="CmqytRWGhgBZeWYKe2WZ-27">
          <mxGeometry x="170" y="40" width="120" height="60" as="geometry" />
        </mxCell>
        <mxCell id="CmqytRWGhgBZeWYKe2WZ-24" value="see more is clicked then go to the pds of account" style="rounded=0;whiteSpace=wrap;html=1;" vertex="1" parent="CmqytRWGhgBZeWYKe2WZ-27">
          <mxGeometry x="330" y="40" width="120" height="60" as="geometry" />
        </mxCell>
        <mxCell id="CmqytRWGhgBZeWYKe2WZ-25" value="" style="endArrow=classic;html=1;rounded=0;" edge="1" parent="CmqytRWGhgBZeWYKe2WZ-27">
          <mxGeometry width="50" height="50" relative="1" as="geometry">
            <mxPoint x="290" y="69.75" as="sourcePoint" />
            <mxPoint x="330" y="70.25" as="targetPoint" />
          </mxGeometry>
        </mxCell>
      </root>
    </mxGraphModel>
  </diagram>
</mxfile>
